# xmcd
#
# Track frame offsets: 
#        150
#        19842
#        41810
#        67325
#        86421
#        110999
#        132684
#        158391
#        182368
#        202051
#
# Disc length: 2976 seconds
#
# Revision: 0
# Processed by: cddbd v1.5.2PL0 Copyright (c) Steve Scherf et al.
# Submitted via: ExactAudioCopy v1.0b3
#
DISCID=900b9e0a
DTITLE=Ha Vy - Con Gai
DYEAR=1996
DGENRE=
TTITLE0=Con gai
TTITLE1=Muon
TTITLE2=Hon nhien nhu la
TTITLE3=Tinh oi tinh oi
TTITLE4=Giay phut ta tu
TTITLE5=Gio danh do dua
TTITLE6=Thuyen xa ben do
TTITLE7=Mua xanh
TTITLE8=Vo cai trong com
TTITLE9=Beo dat may troi
EXTD=
EXTT0=
EXTT1=
EXTT2=
EXTT3=
EXTT4=
EXTT5=
EXTT6=
EXTT7=
EXTT8=
EXTT9=
PLAYORDER=
